<mxfile host="Electron" modified="2024-05-24T10:47:42.616Z" agent="Mozilla/5.0 (Windows NT 10.0; Win64; x64) AppleWebKit/537.36 (KHTML, like Gecko) draw.io/24.4.7 Chrome/124.0.6367.207 Electron/30.0.6 Safari/537.36" etag="LXDtF0bABOTDmkYrqqIK" version="24.4.7" type="device">
  <diagram name="第 1 页" id="WRKOMJjeIvw73-ohukxt">
    <mxGraphModel dx="946" dy="819" grid="1" gridSize="10" guides="1" tooltips="1" connect="1" arrows="1" fold="1" page="0" pageScale="1" pageWidth="827" pageHeight="1169" math="0" shadow="0">
      <root>
        <mxCell id="0" />
        <mxCell id="1" parent="0" />
        <mxCell id="UTUTPQhSnaT2KX7uc8D6-2" value="virtual memory" style="rounded=1;whiteSpace=wrap;html=1;fillColor=#e1d5e7;strokeColor=#9673a6;" vertex="1" parent="1">
          <mxGeometry x="110" y="730" width="370" height="70" as="geometry" />
        </mxCell>
        <mxCell id="UTUTPQhSnaT2KX7uc8D6-4" value="heap" style="rounded=1;whiteSpace=wrap;html=1;fillColor=#fff2cc;strokeColor=#d6b656;" vertex="1" parent="1">
          <mxGeometry x="110" y="600" width="370" height="70" as="geometry" />
        </mxCell>
        <mxCell id="UTUTPQhSnaT2KX7uc8D6-5" value="mcentral" style="rounded=1;whiteSpace=wrap;html=1;fillColor=#d5e8d4;strokeColor=#82b366;" vertex="1" parent="1">
          <mxGeometry x="110" y="460" width="120" height="90" as="geometry" />
        </mxCell>
        <mxCell id="UTUTPQhSnaT2KX7uc8D6-6" value="mcentral" style="rounded=1;whiteSpace=wrap;html=1;fillColor=#d5e8d4;strokeColor=#82b366;" vertex="1" parent="1">
          <mxGeometry x="360" y="460" width="120" height="90" as="geometry" />
        </mxCell>
        <mxCell id="UTUTPQhSnaT2KX7uc8D6-7" value="mcentral" style="rounded=1;whiteSpace=wrap;html=1;fillColor=#d5e8d4;strokeColor=#82b366;" vertex="1" parent="1">
          <mxGeometry x="235" y="460" width="120" height="90" as="geometry" />
        </mxCell>
        <mxCell id="UTUTPQhSnaT2KX7uc8D6-8" value="mcache" style="rounded=1;whiteSpace=wrap;html=1;fillColor=#dae8fc;strokeColor=#6c8ebf;" vertex="1" parent="1">
          <mxGeometry x="110" y="310" width="180" height="100" as="geometry" />
        </mxCell>
        <mxCell id="UTUTPQhSnaT2KX7uc8D6-9" value="mcache" style="rounded=1;whiteSpace=wrap;html=1;fillColor=#dae8fc;strokeColor=#6c8ebf;" vertex="1" parent="1">
          <mxGeometry x="300" y="310" width="180" height="100" as="geometry" />
        </mxCell>
        <mxCell id="UTUTPQhSnaT2KX7uc8D6-10" value="&lt;div&gt;对应P的缓存&lt;/div&gt;数量等于P的数量" style="text;html=1;align=center;verticalAlign=middle;resizable=0;points=[];autosize=1;strokeColor=none;fillColor=none;" vertex="1" parent="1">
          <mxGeometry x="-20" y="340" width="120" height="40" as="geometry" />
        </mxCell>
        <mxCell id="UTUTPQhSnaT2KX7uc8D6-11" value="数量等于68 * 2&lt;div&gt;每个等级的span对应一个mcentral&lt;/div&gt;" style="text;html=1;align=center;verticalAlign=middle;resizable=0;points=[];autosize=1;strokeColor=none;fillColor=none;" vertex="1" parent="1">
          <mxGeometry x="-90" y="485" width="200" height="40" as="geometry" />
        </mxCell>
        <mxCell id="UTUTPQhSnaT2KX7uc8D6-12" value="全局唯一" style="text;html=1;align=center;verticalAlign=middle;resizable=0;points=[];autosize=1;strokeColor=none;fillColor=none;" vertex="1" parent="1">
          <mxGeometry x="5" y="620" width="70" height="30" as="geometry" />
        </mxCell>
        <mxCell id="UTUTPQhSnaT2KX7uc8D6-13" value="全局唯一" style="text;html=1;align=center;verticalAlign=middle;resizable=0;points=[];autosize=1;strokeColor=none;fillColor=none;" vertex="1" parent="1">
          <mxGeometry x="5" y="750" width="70" height="30" as="geometry" />
        </mxCell>
        <mxCell id="UTUTPQhSnaT2KX7uc8D6-14" value="" style="sketch=0;pointerEvents=1;shadow=0;dashed=0;html=1;strokeColor=none;labelPosition=center;verticalLabelPosition=bottom;verticalAlign=top;outlineConnect=0;align=center;shape=mxgraph.office.security.lock_protected;fillColor=#2072B8;" vertex="1" parent="1">
          <mxGeometry x="120" y="470" width="15" height="20" as="geometry" />
        </mxCell>
        <mxCell id="UTUTPQhSnaT2KX7uc8D6-15" value="" style="sketch=0;pointerEvents=1;shadow=0;dashed=0;html=1;strokeColor=none;labelPosition=center;verticalLabelPosition=bottom;verticalAlign=top;outlineConnect=0;align=center;shape=mxgraph.office.security.lock_protected;fillColor=#2072B8;" vertex="1" parent="1">
          <mxGeometry x="250" y="470" width="15" height="20" as="geometry" />
        </mxCell>
        <mxCell id="UTUTPQhSnaT2KX7uc8D6-16" value="" style="sketch=0;pointerEvents=1;shadow=0;dashed=0;html=1;strokeColor=none;labelPosition=center;verticalLabelPosition=bottom;verticalAlign=top;outlineConnect=0;align=center;shape=mxgraph.office.security.lock_protected;fillColor=#2072B8;" vertex="1" parent="1">
          <mxGeometry x="370" y="470" width="15" height="20" as="geometry" />
        </mxCell>
        <mxCell id="UTUTPQhSnaT2KX7uc8D6-17" value="" style="sketch=0;pointerEvents=1;shadow=0;dashed=0;html=1;strokeColor=none;labelPosition=center;verticalLabelPosition=bottom;verticalAlign=top;outlineConnect=0;align=center;shape=mxgraph.office.security.lock_protected;fillColor=#2072B8;" vertex="1" parent="1">
          <mxGeometry x="120" y="610" width="15" height="20" as="geometry" />
        </mxCell>
      </root>
    </mxGraphModel>
  </diagram>
</mxfile>
